8_ID_stride4.mot
nRows=7
nColumns=38

name 8_ID_stride4.mot
datacolumns 38
datarows 7
range 1.6900000000 1.7200000000
endheader
time	pelvis_tilt_moment	pelvis_list_moment	pelvis_rotation_moment	pelvis_tx_force	pelvis_ty_force	pelvis_tz_force	hip_flexion_r_moment	hip_adduction_r_moment	hip_rotation_r_moment	knee_angle_r_moment	ankle_angle_r_moment	subtalar_angle_r_moment	mtp_angle_r_moment	hip_flexion_l_moment	hip_adduction_l_moment	hip_rotation_l_moment	knee_angle_l_moment	ankle_angle_l_moment	subtalar_angle_l_moment	mtp_angle_l_moment	lumbar_extension_moment	lumbar_bending_moment	lumbar_rotation_moment	arm_flex_r_moment	arm_add_r_moment	arm_rot_r_moment	elbow_flex_r_moment	pro_sup_r_moment	wrist_flex_r_moment	wrist_dev_r_moment	arm_flex_l_moment	arm_add_l_moment	arm_rot_l_moment	elbow_flex_l_moment	pro_sup_l_moment	wrist_flex_l_moment	wrist_dev_l_moment
        1.6900000000	      -17.6466367073	       46.1951687196	       35.8041364031	      147.2978741878	      451.0214231989	      103.7242208749	       70.9958115185	        3.8781263331	       -1.8259094055	       21.1824870432	        4.9224096291	       -0.4937172682	        0.2616767771	      -28.2119510508	       -8.6604625273	      -18.4867042034	      -21.8520795006	        5.9733579606	      -11.1200424050	        0.2356744039	       18.5207291704	       20.8976763506	       -1.4204885598	       -8.5643250705	       -1.2330261421	        0.3051604511	       -0.3441370852	        0.0087896734	        0.0335283430	        0.1147875790	       -9.2144227340	        1.8060024186	        1.9197753112	       -0.3590587988	        0.0494189505	        0.1691633875	        0.1449330646	
        1.6950000000	      -35.3056665059	       60.4259703210	       52.8283359415	      155.1498762853	      468.4168829005	       59.6888028949	       71.2432515443	        4.9509541219	       -1.7787206988	       20.1692156814	        4.8523436183	       -0.4593133965	        0.2584954871	      -27.5640554226	      -34.0160869370	      -22.2420628780	        0.5533399584	       18.8788528524	      -12.8972128737	        0.3235378829	       30.8309837600	       30.2303569032	        2.9850367282	       -8.3296762053	       -1.0047738997	        0.6528543367	        0.8010262526	       -0.0026006003	        0.0997555450	        0.0275669843	       -9.7890927187	        2.0606488034	        1.8614648491	        0.7155918188	        0.0229197688	        0.1742326214	        0.0488556232	
        1.7000000000	      -46.9624641136	       54.6648313494	       67.7041120495	      119.4262747242	      338.3204793084	       -6.2716121633	       76.3498720637	        8.1379441829	       -1.9256990982	       20.0276737998	        4.8134001234	       -0.4341141125	        0.2550378709	      -54.9574040307	      -60.4872491181	      -26.2846843867	       17.9623734232	       22.0895583124	      -12.8517228213	        0.3909545027	       35.1730308656	       33.1838992172	        6.3423687387	       -7.1987047378	       -0.6413773687	        0.9079113921	        1.7589534911	       -0.0130629478	        0.1490367563	       -0.0490990908	       -9.3265895827	        2.0605873266	        1.6242744108	        1.6150120936	       -0.0024736493	        0.1621508993	       -0.0364270145	
        1.7050000000	      -44.5550712174	       35.7390127560	       76.5793228665	       60.0805565839	      132.9277321106	      -71.1492209634	       82.7114773184	       12.1081811182	       -2.2309753495	       20.6688578411	        4.7807131503	       -0.4084790775	        0.2503240364	      -93.7524550397	      -78.8230720111	      -31.4425654472	       28.8193791791	       16.8282085598	      -11.9796266462	        0.4164514306	       31.8622086890	       29.6202147942	        7.7554676468	       -5.7250750381	       -0.1273857575	        1.1018236456	        2.1979776412	       -0.0145339741	        0.1739136010	       -0.0876414927	       -8.2767781082	        1.8198811236	        1.2456748404	        1.9877658583	       -0.0223958616	        0.1349512505	       -0.0856054408	
        1.7100000000	      -29.0722851659	       -3.2052376026	       79.2859963496	      -18.8460754900	     -127.3291471252	     -112.2535447715	       88.5349063315	       16.2260771584	       -2.7425048573	       22.7823781974	        4.7386307748	       -0.3774175924	        0.2439790613	     -140.6708630001	      -84.7815972130	      -38.3747363174	       32.0690425113	       -2.4073152113	      -10.8823538076	        0.4157555363	       19.9712730799	       16.9044125715	        7.8116129069	       -4.1270818607	        0.5269724411	        1.2305784080	        2.2594406134	       -0.0130171900	        0.1786169520	       -0.0944228730	       -6.5680235108	        1.0694229091	        0.7467217486	        2.0186449900	       -0.0354676014	        0.0910363162	       -0.0978015412	
        1.7150000000	       -3.4471132248	      -46.3677259924	       79.2845982090	      -91.9851583680	     -362.5009090774	     -123.1486193436	       91.1004480218	       19.4165705715	       -3.3470461994	       25.3919642970	        4.6641537903	       -0.3350762685	        0.2366209869	     -184.2321003656	      -84.6627401440	      -46.8492343817	       32.4468240869	      -28.9063807542	      -10.8382207830	        0.3796242598	        7.4353799117	        1.3545194788	        6.1590339438	       -2.7739827057	        1.1564531215	        1.2759319396	        2.0919483765	       -0.0090422866	        0.1694220369	       -0.0887037591	       -4.7877044076	        0.2620365570	        0.3158596324	        1.8135864865	       -0.0413522112	        0.0550898644	       -0.0968505833	
        1.7200000000	       21.9586009436	      -77.2542864498	       75.5303252438	     -138.7043542277	     -516.7472985102	     -101.9536479378	       90.9793480007	       21.0854393187	       -3.9485824636	       27.8030197311	        4.5519031788	       -0.2805251515	        0.2298340127	     -211.9367662135	      -76.8889024300	      -53.9468682284	       33.4996457499	      -56.2025931105	      -12.0054233266	        0.3210211794	        0.1785711794	      -10.5705388969	        2.8994471261	       -1.8470216012	        1.5522430157	        1.1679606220	        1.9634266624	       -0.0100155354	        0.1432780256	       -0.0883269068	       -3.1486607653	       -0.2530540070	        0.1025593897	        1.6822685335	       -0.0423965478	        0.0417251095	       -0.0947642613	
